<svg width="699" height="699" viewBox="0 0 699 699" fill="none" xmlns="http://www.w3.org/2000/svg">
<g clip-path="url(#clip0_603_18)">
<g filter="url(#filter0_d_603_18)">
<path d="M298.3 297.308H410.045V314.499H298.3V297.308ZM427.237 297.308H444.428V314.499H427.237V297.308ZM263.916 297.308H281.108V314.499H263.916V297.308Z" fill="white"/>
<path d="M607.749 262.924C607.695 218.585 573.969 181.542 529.828 177.336C525.686 147.582 500.258 125.425 470.216 125.392C457.732 125.351 445.551 129.236 435.396 136.497C412.819 102.987 372.745 85.7532 332.892 92.4139C293.04 99.0799 260.752 128.409 250.301 167.439C241.79 162.663 232.243 160.033 222.488 159.778C212.732 159.522 203.061 161.65 194.312 165.975C185.564 170.3 178.001 176.692 172.28 184.599C166.559 192.505 162.852 201.687 161.48 211.35H160.767C122.79 211.35 92 242.135 92 280.116C92 318.092 122.79 348.882 160.767 348.882H246.725V486.415C246.725 488.695 245.819 490.881 244.207 492.493C242.595 494.105 240.409 495.011 238.129 495.011H211.12C206.793 478.243 190.676 467.314 173.497 469.496C156.321 471.679 143.449 486.289 143.449 503.607C143.449 520.92 156.321 535.529 173.497 537.713C190.676 539.895 206.793 528.966 211.12 512.203H238.129C252.374 512.203 263.916 500.656 263.916 486.415V348.882H341.279V520.798H358.47V348.882H435.833V486.415C435.833 500.656 447.379 512.203 461.62 512.203H488.629C492.956 528.965 509.078 539.895 526.252 537.713C543.432 535.53 556.305 520.92 556.305 503.607C556.305 486.289 543.432 471.679 526.252 469.496C509.078 467.314 492.956 478.243 488.629 495.011H461.62C459.34 495.011 457.154 494.105 455.542 492.493C453.93 490.881 453.024 488.695 453.024 486.415V348.882H521.791C569.244 348.829 607.698 310.373 607.749 262.924ZM177.958 520.798C168.464 520.798 160.767 513.101 160.767 503.607C160.767 494.108 168.464 486.415 177.958 486.415C187.452 486.415 195.15 494.108 195.15 503.607C195.15 513.101 187.452 520.798 177.958 520.798ZM521.791 486.415C531.285 486.415 538.982 494.108 538.982 503.607C538.982 513.101 531.285 520.798 521.791 520.798C512.297 520.798 504.599 513.101 504.599 503.607C504.599 494.108 512.297 486.415 521.791 486.415ZM109.192 280.116C109.221 251.642 132.297 228.566 160.767 228.541C163.246 228.559 165.72 228.759 168.17 229.142C169.417 229.261 170.676 229.112 171.862 228.706C173.048 228.3 174.133 227.645 175.046 226.787C175.975 225.907 176.712 224.846 177.213 223.669C177.714 222.492 177.968 221.224 177.958 219.945C177.946 211.565 180.387 203.364 184.981 196.355C189.575 189.345 196.12 183.834 203.809 180.5C211.499 177.168 219.995 176.16 228.251 177.601C236.507 179.041 244.16 182.866 250.267 188.605C251.425 189.686 252.859 190.426 254.41 190.744C255.962 191.062 257.572 190.944 259.061 190.405C260.55 189.866 261.861 188.925 262.85 187.688C263.839 186.45 264.466 184.963 264.663 183.392C269.326 146.256 297.494 116.409 334.303 109.614C371.108 102.823 408.081 120.645 425.692 153.668C426.328 154.862 427.238 155.89 428.346 156.667C429.455 157.443 430.732 157.947 432.072 158.136C433.413 158.326 434.779 158.196 436.06 157.757C437.34 157.318 438.499 156.583 439.442 155.611C445.405 149.494 453.056 145.292 461.418 143.542C469.779 141.793 478.473 142.575 486.388 145.79C494.304 149.004 501.081 154.505 505.856 161.589C510.631 168.673 513.186 177.019 513.195 185.562C513.195 186.691 513.417 187.809 513.849 188.852C514.281 189.895 514.915 190.843 515.713 191.641C516.511 192.439 517.459 193.072 518.502 193.504C519.545 193.936 520.663 194.158 521.792 194.158C559.772 194.158 590.558 224.944 590.558 262.924C590.558 300.901 559.772 331.691 521.792 331.691H160.767C132.297 331.662 109.221 308.585 109.192 280.116Z" fill="white"/>
<path d="M478.812 176.967H496.003V194.158H478.812V176.967ZM444.428 176.967H461.62V194.158H444.428V176.967ZM573.366 262.925H556.174C556.174 281.913 540.783 297.308 521.791 297.308V314.499C550.264 314.47 573.341 291.394 573.366 262.925ZM487.407 297.308H504.599V314.499H487.407V297.308ZM349.874 537.99C330.886 537.99 315.491 553.381 315.491 572.373C315.491 591.361 330.886 606.757 349.874 606.757C368.867 606.757 384.258 591.361 384.258 572.373C384.258 553.381 368.867 537.99 349.874 537.99ZM349.874 589.565C340.38 589.565 332.683 581.867 332.683 572.373C332.683 562.875 340.38 555.182 349.874 555.182C359.368 555.182 367.066 562.875 367.066 572.373C367.066 581.867 359.368 589.565 349.874 589.565ZM212.341 366.074H229.533V383.266H212.341V366.074ZM212.341 400.457H229.533V417.649H212.341V400.457ZM212.341 434.841H229.533V452.032H212.341V434.841ZM470.216 366.074H487.407V383.266H470.216V366.074ZM470.216 400.457H487.407V417.649H470.216V400.457ZM470.216 434.841H487.407V452.032H470.216V434.841Z" fill="white"/>
</g>
</g>
<defs>
<filter id="filter0_d_603_18" x="-8" y="-9" width="715.749" height="715.757" filterUnits="userSpaceOnUse" color-interpolation-filters="sRGB">
<feFlood flood-opacity="0" result="BackgroundImageFix"/>
<feColorMatrix in="SourceAlpha" type="matrix" values="0 0 0 0 0 0 0 0 0 0 0 0 0 0 0 0 0 0 127 0" result="hardAlpha"/>
<feOffset/>
<feGaussianBlur stdDeviation="50"/>
<feComposite in2="hardAlpha" operator="out"/>
<feColorMatrix type="matrix" values="0 0 0 0 1 0 0 0 0 1 0 0 0 0 1 0 0 0 0.2 0"/>
<feBlend mode="lighten" in2="BackgroundImageFix" result="effect1_dropShadow_603_18"/>
<feBlend mode="normal" in="SourceGraphic" in2="effect1_dropShadow_603_18" result="shape"/>
</filter>
<clipPath id="clip0_603_18">
<rect width="699" height="699" fill="white"/>
</clipPath>
</defs>
</svg>
